<svg xmlns="http://www.w3.org/2000/svg" viewBox="0 0 33 33" width="44" height="44">
    <rect  width="33" height="33"/>
    <path style="fill:#fff" d="M9.9,28.6H9.7l-.2-.3V23.1a8.8,8.8,0,0,1-4.9-8.2c0-5.6,5.1-9.8,11.9-9.8s12,4.2,12,9.8-5.1,9.8-12,9.8h-.6l-5.8,3.9ZM16.5,5.8c-6.4,0-11.2,3.9-11.2,9.1A7.9,7.9,0,0,0,10,22.5a.5.5,0,0,1,.2.4v4.7L15.6,24h.9c6.4,0,11.3-3.9,11.3-9.1S23,5.8,16.5,5.8Z"/><ellipse class="cls-2" cx="16.4" cy="14.9" rx="11.7" ry="9.5"/><polygon class="cls-2" points="13 26.4 10.3 27.8 9.6 24.9 11.5 20.6 14.2 19.2 14.9 22.1 13 26.4"/><polygon class="cls-2" points="14.7 25.4 11.4 26.5 10.1 23.3 12 19 15.3 17.9 16.7 21.1 14.7 25.4"/>
</svg>