<?xml version="1.0" encoding="utf-8"?>
<!-- Generator: Adobe Illustrator 21.0.0, SVG Export Plug-In . SVG Version: 6.00 Build 0)  -->
<svg version="1.1" id="Слой_1" xmlns="http://www.w3.org/2000/svg" xmlns:xlink="http://www.w3.org/1999/xlink" x="0px" y="0px"
	 viewBox="0 0 1431 380" style="enable-background:new 0 0 1431 380;" width="1431" height="380" xml:space="preserve">
<style type="text/css">
	.st0{fill:none;}
	.st1{fill:#EDEDED;}
	.st2{enable-background:new    ;}
	.st3{fill:#FFFFFF;}
</style>
<path class="st0" d="M1079.3-109.9"/>
<rect x="-5.4" y="-6.2" class="st1" width="1443.9" height="395.2"/>
<g class="st2">
	<path class="st3" d="M402.1,218.7h-16.9v-63.3h37.5v13.7h-20.5v12.1h19V195h-19L402.1,218.7L402.1,218.7z"/>
	<path class="st3" d="M433.2,218.7v-63.3h17.2v63.3H433.2z"/>
	<path class="st3" d="M521.2,218.7h-19.8l-12.3-19.8l-12.3,19.8h-19.4l21-32.4l-20-30.9h19l11.4,19.6l11-19.6h19.9l-20.1,32.2
		L521.2,218.7z"/>
	<path class="st3" d="M579.4,218.7h-17.2v-49.4h-15.5v-14.1h48.1v14.1h-15.4V218.7z"/>
	<path class="st3" d="M658.2,218.7H641v-25.9h-19.8v25.9H604v-63.3h17.2v23.4H641v-23.6h17.2V218.7z"/>
	<path class="st3" d="M709.6,218.7H672v-63.3h37.6v13.7h-20.5v9.9h19v13.7h-19v12h20.5V218.7z"/>
	<path class="st3" d="M789.7,175.5c0,7.1-2,12.6-6.2,16.4s-10.1,5.8-17.8,5.8h-4.9v21h-17.2v-63.4h21.9c8,0,14.1,1.8,18.1,5.2
		C787.6,164,789.7,169,789.7,175.5z M760.8,183.8h3.1c2.5,0,4.6-0.7,6.1-2.2s2.2-3.4,2.2-5.9c0-4.3-2.4-6.4-7.1-6.4h-4.4v14.5
		L760.8,183.8L760.8,183.8z"/>
	<path class="st3" d="M854.3,218.7h-17.2v-25.9h-19.8v25.9h-17.2v-63.3h17.2v23.4h19.8v-23.6h17.2V218.7z"/>
	<path class="st3" d="M927.3,186.9c0,10.6-2.7,18.8-7.9,24.3c-5.2,5.5-12.8,8.3-22.9,8.3c-9.9,0-17.6-2.8-22.9-8.4
		c-5.3-5.6-8-13.7-8-24.4c0-10.5,2.7-18.7,7.9-24.1s12.8-8.3,22.9-8.3c10.1,0,17.8,2.8,22.9,8.3
		C924.4,167.9,927.3,176.3,927.3,186.9z M883.6,186.9c0,12.3,4.3,18.3,12.8,18.3c4.3,0,7.5-1.5,9.7-4.4c2-2.9,3.1-7.5,3.1-13.9
		s-1.1-11-3.3-14.1s-5.3-4.6-9.5-4.6C887.9,168.4,883.6,174.6,883.6,186.9z"/>
	<path class="st3" d="M966.6,218.7h-17.2v-49.4h-15.5v-14.1H982v14.1h-15.4L966.6,218.7L966.6,218.7z"/>
	<path class="st3" d="M1050.6,186.9c0,10.6-2.7,18.8-7.9,24.3c-5.2,5.5-12.8,8.3-22.9,8.3c-9.9,0-17.6-2.8-22.9-8.4
		c-5.3-5.6-8-13.7-8-24.4c0-10.5,2.7-18.7,7.9-24.1s12.8-8.3,22.9-8.3c10.1,0,17.8,2.8,22.9,8.3
		C1047.7,168,1050.6,176.3,1050.6,186.9z M1006.9,186.9c0,12.3,4.3,18.3,12.8,18.3c4.3,0,7.5-1.5,9.7-4.4s3.1-7.5,3.1-13.9
		s-1.1-11-3.3-14.1c-2.2-3.1-5.3-4.6-9.5-4.6C1011.2,168.4,1006.9,174.6,1006.9,186.9z"/>
</g>
</svg>
