<svg xmlns="http://www.w3.org/2000/svg" viewBox="0 0 486.4 486.4"  width="44" height="44">
    <rect  width="486.4" height="486.39"/>
    <path style="fill:#fff" d="M387,160.1C376.8,86.2,303.1,48.5,224.5,57.3c-62.2,7-124.2,57.2-126.8,129.2-1.5,43.8,10.9,76.7,52.7,86,18.1-32-5.9-39-9.6-62.2-15.3-94.7,109.3-159.4,174.6-93.2,45.1,45.8,15.4,186.8-57.4,172.1-69.8-14,34.1-126.2-21.5-148.2-45.3-17.9-69.3,54.7-47.8,90.9C176.1,294,149,352.5,159.9,430.3c35.6-25.8,47.6-75.2,57.4-126.7,17.9,10.9,27.5,22.1,50.2,23.8C351.6,334,398.6,243.6,387,160.1Z"/>
</svg>