<svg id="Capa_1" data-name="Capa 1" xmlns="http://www.w3.org/2000/svg" viewBox="0 0 455.7 455.7" width="44" height="44"><defs><style>.cls-2{fill:#fff;}</style></defs><title>twitter</title><rect  width="455.7" height="455.73"/><path class="cls-2" d="M60.4,337.8a194.6,194.6,0,0,0,104.9,30.4c108.3,0,196.1-87.9,196.1-196.2,0-2.7,0-5.4-.1-8.1,3.9-3,28.1-22.5,34.1-35,0,0-19.7,8.2-39,10.2h0c1.8-1.2,26.6-18.1,30-38.2a245.1,245.1,0,0,1-33.5,13.9c-3.2,1.1-6.6,2.1-10,3.1a68.8,68.8,0,0,0-119.1,47,72.4,72.4,0,0,0,1.7,15.6c-5.3-.2-86.2-4.7-141.2-71.4,0,0-32.9,44.9,19.6,91.1,0,0-16-.6-29.8-8.8,0,0-5,54.4,54.4,68.3,0,0-11.7,4.4-30.3,1.3,0,0,10.4,43.9,63.2,48,0,0-41.7,37.8-101,28.9Z"/></svg>